<?xml version="1.0" encoding="UTF-8" standalone="no"?>
<!-- Created with Inkscape (http://www.inkscape.org/) -->

<svg
   width="8.3192186mm"
   height="7.9056344mm"
   viewBox="0 0 8.3192186 7.9056344"
   version="1.1"
   id="svg1"
   xmlns:inkscape="http://www.inkscape.org/namespaces/inkscape"
   xmlns:sodipodi="http://sodipodi.sourceforge.net/DTD/sodipodi-0.dtd"
   xmlns="http://www.w3.org/2000/svg"
   xmlns:svg="http://www.w3.org/2000/svg">
  <sodipodi:namedview
     id="namedview1"
     pagecolor="#505050"
     bordercolor="#eeeeee"
     borderopacity="1"
     inkscape:showpageshadow="0"
     inkscape:pageopacity="0"
     inkscape:pagecheckerboard="0"
     inkscape:deskcolor="#505050"
     inkscape:document-units="mm" />
  <defs
     id="defs1">
    <filter
       inkscape:collect="always"
       style="color-interpolation-filters:sRGB"
       id="filter1"
       x="-0.10767692"
       y="-0.12782508"
       width="1.2153538"
       height="1.2556502">
      <feGaussianBlur
         inkscape:collect="always"
         stdDeviation="2.1000924"
         id="feGaussianBlur1" />
    </filter>
    <filter
       inkscape:collect="always"
       style="color-interpolation-filters:sRGB"
       id="filter2"
       x="-0.10330844"
       y="-0.11521063"
       width="1.2145615"
       height="1.2401757">
      <feGaussianBlur
         inkscape:collect="always"
         stdDeviation="2.1230384"
         id="feGaussianBlur2" />
    </filter>
    <filter
       inkscape:collect="always"
       style="color-interpolation-filters:sRGB"
       id="filter3"
       x="-0.058862006"
       y="-0.11244255"
       width="1.117724"
       height="1.2248851">
      <feGaussianBlur
         inkscape:collect="always"
         stdDeviation="1.1791217"
         id="feGaussianBlur3" />
    </filter>
    <filter
       inkscape:collect="always"
       style="color-interpolation-filters:sRGB"
       id="filter3-1"
       x="-0.21720283"
       y="0"
       width="1.4344057"
       height="1">
      <feGaussianBlur
         inkscape:collect="always"
         stdDeviation="4.351 0"
         id="feGaussianBlur3-3" />
    </filter>
  </defs>
  <g
     inkscape:label="Layer 1"
     inkscape:groupmode="layer"
     id="layer1"
     transform="translate(-17.965823,-35.770301)">
    <g
       id="g2"
       transform="matrix(0.12078076,0,0,0.11640332,18.142518,32.245281)">
      <path
         style="fill:none;fill-opacity:1;stroke:#29f284;stroke-width:2.428;stroke-dashoffset:1360.7;stroke-opacity:1;filter:url(#filter2)"
         d="M 15.671814,91.35521 C 35.393427,84.166721 47.443275,75.729339 45.295367,64.980695 46.04195,53.315067 47.246926,43.002787 58.482623,62.305019 59.250797,68.714154 67.322606,76.307661 50.646718,79.888029 40.074015,86.289093 43.465845,74.349866 40.462239,71.819274 35.202542,67.387884 32.601798,61.918596 40.326254,47.397683 26.612441,16.215265 16.295934,61.472238 4.3957528,71.096525 37.566284,60.524635 15.863497,82.275385 15.671814,91.35521 Z"
         id="path1"
         sodipodi:nodetypes="ccccsccc"
         inkscape:export-filename="basSeiLOGO.svg"
         inkscape:export-xdpi="96"
         inkscape:export-ydpi="96" />
      <path
         style="fill:#a6ff00;fill-opacity:1;stroke:none;stroke-width:1.85487;stroke-dashoffset:1360.7;stroke-opacity:1;filter:url(#filter1)"
         d="M 26.199043,76.147948 C 42.139482,70.957425 45.797652,65.473269 44.061557,57.7121 44.665,49.288815 50.797764,47.309057 55.554723,57.597595 c 0.620898,4.627782 5.364857,6.333698 -8.113808,8.918939 -8.545627,4.62195 -7.337839,1.621248 -9.765571,-0.205992 -4.251269,-3.19973 -5.427784,-8.444475 0.815682,-18.929449 -7.79265,-27.386417 -18.790731,5.802355 -28.4335,12.787446 26.810831,-7.633541 16.296449,9.423232 16.141517,15.979409 z"
         id="path1-6"
         sodipodi:nodetypes="ccccsccc" />
      <path
         style="opacity:0.225053;fill:#ffcedf;fill-opacity:1;stroke:#000000;stroke-width:0;stroke-dasharray:none;stroke-dashoffset:1360.7;stroke-opacity:1"
         d="m 24.245818,54.029617 c -1.087626,-1.089103 -2.399746,-1.881557 -3.56033,-2.873262 -0.612856,-0.523696 -1.155885,-1.132925 -1.780165,-1.641893 -1.720705,-1.40282 -6.034499,-2.72854 -8.109639,-1.436642 -0.9663272,0.601615 -1.6407432,4.27465 -1.7801645,4.925633 -0.2654535,1.239461 -0.5342368,3.375819 0.19779,4.515154 1.3084565,2.036507 4.0961745,2.495878 6.3294735,3.283763 2.506849,0.884375 7.11655,1.437552 9.889806,0.820935 0.490976,-0.109103 0.992479,-0.290237 1.384572,-0.615707 0.185566,-0.154108 1.611172,-1.538267 1.780164,-1.231413 1.288794,2.3402 0.404899,5.868672 0,8.209373 -0.192094,1.110536 -0.527456,2.189182 -0.791184,3.283763 -1.176334,4.882287 -2.777338,8.522681 -6.922863,11.287885 -1.460231,0.974021 -3.051125,1.761247 -4.549311,2.668033 -0.205347,0.124332 -0.380763,0.300171 -0.593387,0.410479 -0.34386,0.178429 -1.260825,0.333629 -0.988981,0.615707 0.233105,0.241868 0.65932,0 0.988981,0 3.377087,0 6.512742,-0.03159 9.889803,-0.615707 6.700122,-1.158678 11.918388,-4.045464 16.812669,-8.82508 0.781574,-0.76327 1.416822,-1.675329 2.175756,-2.462805 1.654238,-1.716447 3.969387,-3.325654 4.747107,-5.746568 0.86889,-2.704697 0.121032,-0.594159 0.395591,-2.873284 0.924597,-4.796823 0.129991,0.02318 0.395594,-3.283741 0.143309,-1.7845 0.19779,-3.536155 0.19779,-5.336089 0,-0.752541 0.129727,-1.517196 0,-2.257577 -0.384132,-2.192183 -1.392266,-4.235258 -1.97796,-6.362275 -0.478838,-1.738972 -1.387043,-5.153909 -1.582368,-6.977959 -0.01796,-0.167292 0.19676,-2.258668 0,-2.462828 -0.616781,-0.639959 -4.055316,3.168341 -4.15372,3.283763 -4.111167,4.822167 -1.478882,1.918106 -3.955921,5.130861 -1.343182,1.742109 -2.711239,3.173569 -3.362533,5.336089 -0.451068,1.497695 -0.432242,2.805072 -0.593388,4.309926 -0.09332,0.871441 -0.551678,2.425097 0,3.28374 0.03656,0.05682 0.151174,-0.04841 0.19779,0 0.04662,0.04841 0,0.136834 0,0.205251 0.19779,0.136834 0.367865,0.33247 0.593388,0.410479 0.437839,0.151381 0.952433,0.168201 1.384572,0 0.308669,-0.120014 0.508503,-0.439709 0.791184,-0.615707 3.284118,-2.044575 1.125637,-0.297443 3.56033,-2.462805 1.691934,-1.504763 2.687484,-2.759725 4.153717,-4.515154 0.305336,-0.365565 0.704728,-0.642756 0.988981,-1.026186 0.37924,-0.511558 0.61578,-1.125561 0.988981,-1.64187 0.223779,-0.309604 0.590947,-0.494443 0.791184,-0.820935 0.269579,-0.43955 0.335047,-0.989886 0.593388,-1.436642 0.143923,-0.248892 0.454606,-0.363701 0.593389,-0.615707 0.134876,-0.244892 0.111831,-0.553336 0.19779,-0.820935 0.241287,-0.751086 0.547278,-1.498331 0.791185,-2.257577 0.232281,-0.723037 0.846251,-1.722334 0.98898,-2.462805 0.176016,-0.913196 -0.04611,-0.930516 0.395594,-1.847121 0.15102,-0.313377 0.86398,-0.942426 1.186775,-1.026163 0.580123,-0.150472 3.886419,-0.02409 4.549311,0.205251 0.06254,0.02273 -0.05897,0.174565 0,0.20525 0.440767,0.228686 1.066311,-0.06251 1.582368,0.205251 2.178832,1.13038 2.617726,4.393413 2.966942,6.567481 0.329398,2.050712 0.571096,4.101765 0.791185,6.157047 0.06004,0.560677 0.328155,1.082101 0.395591,1.64187 0.09974,0.827913 0.160221,2.042075 0,2.873284 -0.183157,0.950222 -0.823308,1.788046 -1.186776,2.668033 -0.376697,0.912013 -1.240449,2.871738 -1.384574,3.694219 -0.07076,0.403864 0.07759,0.828913 0,1.231414 -0.05783,0.300011 -0.286084,0.53688 -0.395591,0.820935 -0.286608,0.743471 -0.547148,1.497944 -0.791184,2.257577 -0.300218,0.934539 -0.320613,1.929835 -0.59339,2.873284 -0.269872,0.933402 -0.656943,1.898263 -0.791184,2.873284 -0.08322,0.604456 -0.08234,1.248143 -0.19779,1.847098 0.04539,0.412161 -0.30948,0.668781 -0.395593,1.026186 -0.153233,0.636005 -0.09838,1.025095 -0.395593,1.64187 -0.155183,0.32206 0.109508,0.890511 0,1.231414 -0.296374,0.92256 -0.265813,1.725425 -0.395591,2.668033 -0.02081,0.151381 -0.173562,0.259575 -0.19779,0.410479 -0.127581,0.794227 0.152116,1.673601 0,2.462805 -0.12734,0.660621 -0.441213,1.215526 -0.593388,1.847121 -0.03198,0.132742 0.07315,0.296625 0,0.410456 -0.528353,0.822344 -3.253406,0.754678 -3.955921,0.820935 -0.928592,0.08751 -1.843112,0.297443 -2.769146,0.410479 -1.622572,0.197977 -3.119649,0.09978 -4.747107,0.205251 -0.400268,0.02591 -0.786507,0.179339 -1.186775,0.205251 -1.86127,0.120695 -3.687274,-0.07728 -5.538292,-0.205251 -0.8258,-0.05705 -1.753095,0.141607 -2.571349,0 -1.400101,-0.242119 -2.753386,-0.783999 -4.153717,-1.026163 -0.692287,-0.119787 -0.615366,0.159563 -1.384572,0 -0.552384,-0.114559 -1.02671,-0.519605 -1.582368,-0.615707 -0.260142,-0.04501 -0.528767,0.02728 -0.791185,0 -1.258723,-0.130697 -2.52916,-0.433527 -3.758126,-0.615707 -1.284958,-0.190477 -2.653131,0 -3.955921,0 -2.738506,0 -7.275924,-0.388408 -9.6920092,-1.64187 C 9.5264964,84.669402 9.1042085,84.708725 8.817712,84.609623 8.598397,84.533705 7.3024682,83.757571 7.2353436,83.583437 c -0.073451,-0.190476 0.027974,-0.412525 0,-0.615707 -0.07689,-0.55845 -0.3504404,-1.079669 -0.395591,-1.64187 -0.1134078,-1.412003 0.086507,-2.718903 0.19779,-4.104675 0.1153136,-1.435733 0.19779,-2.863669 0.19779,-4.309926 0,-0.994251 -0.1354015,-2.095036 0,-3.078512 0.029486,-0.214116 0.1635289,-0.402319 0.1977901,-0.615707 0.1702321,-1.059758 0.1216225,-5.068422 0,-5.951796 C 7.2392976,61.857423 6.6873783,60.548659 6.4441419,59.160546 6.2302071,57.939633 6.1462871,56.888535 6.0485487,55.671578 5.8872542,53.663393 5.2805017,51.674915 4.8617735,49.719781 4.6314026,48.644113 4.523548,47.495049 4.2683859,46.436019 c -0.9924792,-4.1192 0.167932,1.636074 -0.7911864,-1.847099 -0.1347443,-0.489374 -0.1262228,-1.938926 0,-2.462827 0.2321957,-0.963702 2.8228398,-1.158361 3.56033,-1.436642 3.7955505,-1.432096 0.098512,-0.278464 2.3735525,-0.615685 0.5544342,-0.08228 1.06335,-0.436209 1.582371,-0.615707 0.380467,-0.131606 0.811261,-0.0591 1.186775,-0.20525 0.414126,-0.161155 0.776126,-0.445256 1.186777,-0.615685 1.563932,-0.540925 1.513362,-0.48326 2.769146,-1.026186 2.016667,-0.871872 7.508187,-3.337132 10.0876,-2.668033 0.40454,0.105012 0.782236,0.305513 1.186775,0.410456 0.127932,0.03319 0.277651,-0.06114 0.395593,0 1.750511,0.908173 0.830662,3.776797 0.593388,5.130861 -0.157899,0.901104 -0.202544,1.550337 -0.593388,2.462806 -0.09654,0.22548 -0.301949,0.388999 -0.395593,0.615707 -0.129311,0.313081 -0.203135,1.103831 -0.395591,1.436642 -0.09595,0.165928 -0.312194,0.237413 -0.395593,0.410478 -0.05897,0.122287 0.04898,0.283419 0,0.410457 -0.01862,0.04841 -0.67649,1.125629 -0.791184,1.231414 -0.492782,0.454506 -1.033781,0.851938 -1.582369,1.231413 -0.245335,0.169793 -0.570804,0.207297 -0.791184,0.410457 -0.384874,0.354972 -0.624858,0.853597 -0.988981,1.231414 -0.401047,0.416138 -0.953946,0.643187 -1.384571,1.026163 -0.652291,0.580134 -1.435103,1.348268 -1.977962,2.052349 -0.240161,0.31149 -0.362721,0.707058 -0.593387,1.026163 -0.38751,0.536129 -0.980977,0.913173 -1.384574,1.436642 -0.624326,0.809774 0.40032,-0.0045 -0.593388,1.026186 -0.240912,0.24996 -0.441918,0.09615 -0.593388,0.410456 -0.09323,0.193431 -0.08215,0.435709 -0.19779,0.615707 -0.07314,0.113876 -0.277648,-0.06114 -0.395591,0 -0.82318,0.427071 0.21146,-0.01364 -0.19779,0.410479 -0.09891,0.102511 -0.296693,0.102511 -0.395593,0.20525 -0.04662,0.04841 0.04662,0.156837 0,0.205251 -0.217089,0.225253 -1.034396,-0.144789 -1.18196,-0.232799"
         id="path2" />
      <text
         xml:space="preserve"
         style="font-style:italic;font-weight:bold;font-size:32.7275px;font-family:'Plus Jakarta Display';-inkscape-font-specification:'Plus Jakarta Display, Bold Italic';text-align:justify;opacity:1;mix-blend-mode:normal;fill:#ebff7d;fill-opacity:1;stroke:#000000;stroke-width:0;stroke-dasharray:none;stroke-dashoffset:1360.7;stroke-opacity:1;filter:url(#filter3)"
         x="11.892375"
         y="74.161087"
         id="text2"
         transform="matrix(1.4030144,0,0,2.0825922,-15.820138,-67.165283)"
         inkscape:export-filename="basSeiLOGO.svg"
         inkscape:export-xdpi="107.67225"
         inkscape:export-ydpi="107.67225"><tspan
           sodipodi:role="line"
           id="tspan2"
           style="font-size:32.7275px;opacity:1;fill:#000000;fill-opacity:1;stroke-width:0"
           x="11.892375"
           y="74.161087">s.S</tspan></text>
      <text
         xml:space="preserve"
         style="font-style:italic;font-weight:bold;font-size:32.7275px;font-family:'Plus Jakarta Display';-inkscape-font-specification:'Plus Jakarta Display, Bold Italic';text-align:justify;mix-blend-mode:normal;fill:#a5ff00;fill-opacity:0.827664;stroke:#000000;stroke-width:0;stroke-dasharray:none;stroke-dashoffset:1360.7;stroke-opacity:1;filter:url(#filter3-1)"
         x="11.892375"
         y="74.161087"
         id="text2-7"
         transform="matrix(1.4030144,0,0,2.0825922,-16.931527,-71.71126)"
         inkscape:export-filename="basSeiLOGO.svg"
         inkscape:export-xdpi="107.67225"
         inkscape:export-ydpi="107.67225"><tspan
           sodipodi:role="line"
           id="tspan2-2"
           style="font-size:32.7275px;opacity:1;fill:#a5ff00;fill-opacity:0.827664;stroke-width:0"
           x="11.892375"
           y="74.161087">s.S</tspan></text>
    </g>
  </g>
</svg>
