<?xml version="1.0" encoding="UTF-8" standalone="no"?>
<!-- Created with Inkscape (http://www.inkscape.org/) -->

<svg
   width="75.478874mm"
   height="16.907883mm"
   viewBox="0 0 75.478874 16.907883"
   version="1.1"
   id="svg1"
   inkscape:version="1.3.2 (091e20e, 2023-11-25, custom)"
   sodipodi:docname="coercobase.svg"
   xmlns:inkscape="http://www.inkscape.org/namespaces/inkscape"
   xmlns:sodipodi="http://sodipodi.sourceforge.net/DTD/sodipodi-0.dtd"
   xmlns="http://www.w3.org/2000/svg"
   xmlns:svg="http://www.w3.org/2000/svg">
  <sodipodi:namedview
     id="namedview1"
     pagecolor="#505050"
     bordercolor="#eeeeee"
     borderopacity="1"
     inkscape:showpageshadow="0"
     inkscape:pageopacity="0"
     inkscape:pagecheckerboard="0"
     inkscape:deskcolor="#505050"
     inkscape:document-units="mm"
     inkscape:zoom="1.0104048"
     inkscape:cx="398.85004"
     inkscape:cy="1032.2595"
     inkscape:window-width="1920"
     inkscape:window-height="991"
     inkscape:window-x="-9"
     inkscape:window-y="-9"
     inkscape:window-maximized="1"
     inkscape:current-layer="layer1" />
  <defs
     id="defs1">
    <filter
       inkscape:collect="always"
       style="color-interpolation-filters:sRGB"
       id="filter1"
       x="-0.037964567"
       y="-0.19674965"
       width="1.0761096"
       height="1.3935173">
      <feGaussianBlur
         inkscape:collect="always"
         stdDeviation="0.633763"
         id="feGaussianBlur1" />
    </filter>
  </defs>
  <g
     inkscape:label="Layer 1"
     inkscape:groupmode="layer"
     id="layer1"
     transform="translate(-59.899366,-78.262769)">
    <g
       id="g1"
       transform="matrix(1.4622756,0,0,1.4622756,-86.441687,-34.794801)"
       inkscape:export-filename="Videos\CoerCo\Look@\lo0-0ok@!\src\assets\coerco.png"
       inkscape:export-xdpi="96"
       inkscape:export-ydpi="96">
      <g
         id="g22"
         transform="matrix(0.99999999,0,0,0.75808893,-0.53803099,15.159648)"
         style="filter:url(#filter1)">
        <path
           style="font-variation-settings:'wdth' 75;opacity:0.949917;fill:none;fill-opacity:1;stroke:#ffbb51;stroke-width:0.600001;stroke-dashoffset:462.602;stroke-opacity:1"
           d="m 105.93694,85.799996 c -0.20123,-0.0792 -0.12782,-0.517504 -0.19639,-0.654646 -0.0508,-0.101531 -0.3102,-0.137972 -0.39279,-0.261858 -0.0487,-0.07307 -0.0945,-0.30185 -0.1964,-0.327324 -0.12701,-0.03175 -0.26857,0.0414 -0.39278,0 -0.17122,-0.05707 -0.25304,-0.199334 -0.45826,-0.130929 -0.0586,0.01953 -0.0796,0.09669 -0.13093,0.130929 -0.26577,0.177181 -0.29519,0.361868 -0.39278,0.654645 -0.0309,0.09258 -0.10727,0.167185 -0.13093,0.261861 -0.0106,0.04234 0.0138,0.08953 0,0.130929 -0.0533,0.159785 -0.19183,0.348642 -0.26186,0.523716 -0.11351,0.283766 -0.0312,0.158055 -0.13093,0.523719 -0.14264,0.52301 -0.26148,1.045906 -0.39279,1.571152 -0.0805,0.32204 -0.26284,0.659548 -0.32733,0.981969 -0.0436,0.217752 -0.14745,1.284176 -0.0655,1.571154 0.0539,0.188756 0.19303,0.4171 0.26186,0.589182 0.065,0.162579 0.10288,0.383445 0.1964,0.523716 0.23544,0.353166 0.0204,-0.04509 0.26186,0.196395 0.0154,0.01543 -0.01,0.04595 0,0.06547 0.0108,0.02154 0.42455,0.308062 0.45825,0.327321 0.10203,0.0583 0.21584,0.09377 0.32732,0.13093 0.0854,0.02845 0.19274,0.0079 0.26186,0.06547 0.075,0.06248 0.0497,0.207727 0.13093,0.261859 0.0726,0.04842 0.17545,-0.01233 0.26186,0 0.1005,0.01437 0.49906,0.221046 0.58918,0.130929 0.0617,-0.06172 -0.039,-0.183788 0,-0.261859 0.0218,-0.04364 0.10386,-0.02487 0.13094,-0.06546 0.0242,-0.03631 -0.0172,-0.09081 0,-0.130931 0.0501,-0.116952 0.13948,-0.213517 0.19638,-0.327322 0.0309,-0.06172 0.0272,-0.138977 0.0655,-0.196395 0.0513,-0.07703 0.14504,-0.119361 0.19639,-0.196395 0.29961,-0.449408 -0.29159,0.0952 0.26186,-0.458253 0.0154,-0.01542 0.0557,0.01953 0.0655,0 0.0498,-0.09952 -0.0132,-0.248644 0.0655,-0.327321 0.0345,-0.0345 0.0964,-0.03096 0.13093,-0.06547 0.0154,-0.01542 -0.0131,-0.04801 0,-0.06547 0.0556,-0.07406 0.14084,-0.122327 0.19639,-0.196392 0.0329,-0.04383 0.0995,-0.199065 0.13093,-0.261858 0.0262,-0.05237 -0.0262,-0.144023 0,-0.196395 0.01,-0.01953 0.0436,0 0.0655,0"
           id="path15" />
        <path
           style="font-variation-settings:'wdth' 75;opacity:0.949917;fill:none;fill-opacity:1;stroke:#43cbb5;stroke-width:0.40484;stroke-dashoffset:462.602;stroke-opacity:1"
           d="m 113.68535,85.697637 c 0.0634,0.06845 0.12669,0.136898 0.19003,0.205348 0.0475,0.06845 0.0854,0.142694 0.14254,0.205347 0.89836,0.983725 0.56395,0.343036 1.52021,1.930258 0.28379,0.471039 0.51913,1.458363 0.42757,2.012398 -0.009,0.04887 -0.0633,0.08215 -0.0949,0.123208 -0.0634,0.08213 -0.1157,0.171464 -0.19003,0.246416 -0.0601,0.0606 -0.16241,0.07681 -0.23755,0.123209 -0.50065,0.309149 -1.18316,0.493431 -1.80527,0.410693 -0.42293,-0.05625 -0.75957,-0.371703 -1.09266,-0.57497 -0.34173,-0.208529 -0.74696,-0.358253 -1.04516,-0.61604 -0.32403,-0.280119 -0.76245,-0.75274 -0.6176,-1.191012 0.0809,-0.244751 0.33469,-0.444731 0.47508,-0.65711 0.0598,-0.09052 0.0978,-0.190685 0.14252,-0.287483 0.093,-0.200974 0.13165,-0.419894 0.23753,-0.616043 0.0633,-0.117031 0.16499,-0.215658 0.23754,-0.328553 0.0369,-0.0573 0.0668,-0.202795 0.14252,-0.246418 0.0263,-0.01519 0.0726,0.01936 0.0951,0 0.0225,-0.01936 -0.0141,-0.05765 0,-0.08213 0.01,-0.01735 0.50739,-0.238543 0.52257,-0.246416 0.0881,-0.04568 0.32545,-0.193059 0.38006,-0.287486 0.0212,-0.03673 -0.0337,-0.09418 0,-0.123208 0.0345,-0.0298 0.46931,0 0.57008,0 z"
           id="path16" />
        <path
           style="font-variation-settings:'wdth' 75;opacity:0.949917;fill:none;fill-opacity:1;stroke:#a2ff68;stroke-width:0.724273;stroke-dashoffset:462.602;stroke-opacity:1"
           d="m 121.49466,84.891043 c -0.73542,0.386361 -0.67617,0.63635 -0.87297,1.158851 -0.0621,0.164684 -0.23873,0.34159 -0.291,0.515047 -0.11275,0.374336 -0.097,0.716575 -0.097,1.094469 0,0.128511 -0.003,0.427868 0.194,0.515046 0.0538,0.02381 0.13616,-0.01921 0.19399,0 0.22683,0.07528 0.41034,0.277326 0.67898,0.321904 0.46828,0.0777 1.06792,0 1.55196,0 0.0646,0 -0.16508,-0.03839 -0.19399,0 -0.36212,0.480707 0.42678,-0.180268 -0.194,0.128761 -0.0932,0.04643 -0.11157,0.138427 -0.19399,0.193139 -0.0228,0.01517 -0.0741,-0.01516 -0.0971,0 -0.11439,0.07587 -0.17668,0.181651 -0.29099,0.257525 -0.0511,0.03393 -0.16166,0.02147 -0.19399,0.06438 -0.0434,0.05758 0.0341,0.132862 0,0.193143 -0.0662,0.117166 -0.21673,0.206886 -0.29099,0.321904 -0.0637,0.09862 0.02,0.215429 0,0.321901 -0.0553,0.293638 -0.246,0.797774 -0.097,1.094472 0.0985,0.196101 0.36895,0.386868 0.485,0.579426 0.024,0.03985 -0.0458,0.09841 0,0.12876 0.0458,0.03035 0.13261,-0.01358 0.19399,0 0.0867,0.01921 0.11217,0.101616 0.19398,0.128761 0.31086,0.103162 1.17384,-0.0043 1.45496,-0.128761 0.027,-0.01189 -0.0148,-0.04519 0,-0.06438 0.0522,-0.0692 0.12402,-0.131243 0.194,-0.193141 0.0548,-0.04856 0.1531,-0.07448 0.19399,-0.128761 0.0148,-0.01921 -0.0289,-0.05479 0,-0.06439 0.0578,-0.01921 0.13617,0.01921 0.194,0 0.0289,-0.0096 -0.0228,-0.04921 0,-0.06438 0.0539,-0.03582 0.55727,-0.241116 0.58198,-0.257524 0.0148,-0.0095 0.0501,-0.259653 0.097,-0.321902 0.0323,-0.04292 0.0646,-0.08584 0.0971,-0.128762 0.0646,-0.02147 0.15389,-0.02446 0.194,-0.06438 0.0359,-0.03571 -0.0204,-0.08805 0,-0.128761 0.0434,-0.08638 0.2149,-0.117385 0.29099,-0.193143 0.0634,-0.06309 0.13068,-0.194435 0.19399,-0.257522 0.10668,-0.106284 0.96998,-0.889916 0.96998,-0.965708"
           id="path17" />
        <path
           style="font-variation-settings:'wdth' 75;opacity:0.949917;fill:none;fill-opacity:1;stroke:#ff4823;stroke-width:0.476472;stroke-dashoffset:462.602;stroke-opacity:1"
           d="m 139.94756,84.534908 c -0.11217,-0.214324 -0.29348,-0.463899 -0.49022,-0.357694 -0.0681,0.03677 -0.28575,0.231058 -0.32681,0.330787 -0.0169,0.04103 -0.0193,0.09745 -0.0409,0.132314 -0.01,0.01559 -0.0348,-0.01974 -0.0409,0 -0.0251,0.08133 -0.02,0.180208 -0.0409,0.264628 -0.0537,0.217655 -0.1977,0.343453 -0.28596,0.52926 -0.0628,0.132145 -0.22988,0.561214 -0.28596,0.727729 -0.15161,0.450111 -0.34126,0.875153 -0.49022,1.323144 -0.0266,0.08006 -0.02,0.180208 -0.0409,0.264628 -0.052,0.210807 -0.15993,0.380026 -0.20426,0.595415 -0.0603,0.293228 0.0157,1.146953 0.12256,1.389303 0.0336,0.07614 0.089,0.122339 0.12255,0.198473 0.14022,0.317915 0.20131,0.733309 0.32681,1.058516 0.0306,0.07934 0.0856,0.126595 0.12256,0.198471 0.0315,0.06108 0.0396,0.157565 0.0817,0.198472 0.035,0.03404 0.0875,-0.03404 0.12255,0 0.0421,0.04091 0.0424,0.150767 0.0817,0.198473 0.0218,0.02647 0.0573,-0.01974 0.0817,0 0.0345,0.02789 0.0487,0.100219 0.0817,0.132314 0.0369,0.03588 0.0867,0.02748 0.12256,0.06616 0.0481,0.05189 0.0727,0.151328 0.12255,0.19847 0.11585,0.109437 0.24958,0.16166 0.36767,0.264629 0.06,0.05228 0.10082,0.155039 0.1634,0.198472 0.10013,0.0695 0.21788,0 0.32681,0 0.19064,0 0.38276,0.03829 0.57193,0 0.12457,-0.02521 0.24321,-0.105443 0.36766,-0.132314 0.081,-0.01748 0.16452,0.02174 0.24511,0 0.25204,-0.06803 0.47206,-0.330787 0.73532,-0.330787"
           id="path19" />
        <path
           style="font-variation-settings:'wdth' 75;opacity:0.949917;fill:none;fill-opacity:1;stroke:#aa5e5d;stroke-width:0.600001;stroke-dashoffset:462.602;stroke-opacity:1"
           d="m 147.42093,83.815666 c -0.16149,0.818902 -0.87192,1.35204 -1.17837,2.091119 -0.20307,0.489752 -0.62081,1.742914 -0.72011,2.48766 -0.0453,0.339505 -0.0761,0.925266 0.0655,1.243827 0.0517,0.116274 0.14745,0.209871 0.19639,0.327324 0.0611,0.146643 0.0599,0.316162 0.13093,0.458253 0.0625,0.124976 0.18435,0.211064 0.26186,0.327324 0.2688,0.403207 -0.006,0.123436 0.26186,0.458253 0.0385,0.04819 0.10332,0.07572 0.13093,0.13093 0.0195,0.03903 -0.0195,0.09189 0,0.130929 0.0537,0.107375 0.35589,0.462301 0.45825,0.523716 0.0592,0.0355 0.13788,0.02889 0.19639,0.06547 0.11849,0.07405 0.20945,0.186843 0.32733,0.261858 0.28594,0.181964 0.80854,0.412316 0.85104,0.327324 0.0195,-0.03904 -0.0195,-0.0919 0,-0.130929 0.0838,-0.167569 0.4249,-0.53144 0.58918,-0.654648 0.039,-0.02928 0.0964,-0.03096 0.13093,-0.06546 0.0309,-0.03086 -0.0242,-0.09462 0,-0.13093 0.10617,-0.159265 0.23753,-0.27868 0.32732,-0.458253 0.0309,-0.06172 0.03,-0.137223 0.0655,-0.196394 0.0729,-0.121545 0.27527,-0.262671 0.32732,-0.392788 0.0455,-0.113805 0.0434,-0.456538 0.0655,-0.589182 0.0227,-0.136136 0.10824,-0.256656 0.13094,-0.39279 0.0108,-0.06457 -0.023,-0.135096 0,-0.196392 0.0447,-0.119139 0.15983,-0.205451 0.19639,-0.327324 0.0313,-0.104508 -0.0265,-0.221475 0,-0.327324 0.0191,-0.07633 0.10605,-0.121753 0.13093,-0.196395 0.10558,-0.316759 -0.0433,-1.329899 -0.13093,-1.636617 -0.0402,-0.14075 -0.14203,-0.256873 -0.19639,-0.392787 -0.062,-0.155064 -0.0689,-0.303191 -0.13094,-0.458253 -0.12314,-0.307859 -0.26238,-0.284377 -0.39278,-0.458253 -0.28123,-0.37497 0.42857,0.157771 -0.13093,-0.261858 -0.17892,-0.134189 -0.48059,-0.241062 -0.58918,-0.458253 -0.0309,-0.06172 -0.0167,-0.147601 -0.0655,-0.196395 -0.0488,-0.04879 -0.13898,-0.02719 -0.19639,-0.06546 -0.0181,-0.01209 0.0154,-0.05004 0,-0.06547 -0.159,-0.159002 -0.0961,0.01947 -0.1964,-0.130929 -0.049,-0.07358 -0.0462,-0.21947 -0.13093,-0.261859 -0.15683,-0.07842 -0.33307,-0.06547 -0.52372,-0.06547 -0.0873,0 -0.17457,0 -0.26185,0 -0.0218,0 -0.0655,0.02183 -0.0655,0 0,-0.110043 0.0437,-0.215715 0.0655,-0.323573 z"
           id="path20" />
        <path
           style="font-variation-settings:'wdth' 75;opacity:0.949917;fill:none;fill-opacity:1;stroke:#f5ff28;stroke-width:0.821432;stroke-dashoffset:462.602;stroke-opacity:1"
           d="m 130.06889,84.784628 c -0.0695,0.98675 0.22794,1.947982 0.41313,2.905978 0.081,0.418906 0.16195,0.83781 0.24292,1.256717 0.0523,0.270261 0.10449,0.540522 0.15673,0.810782 0.0209,0.10811 0.0659,0.213527 0.0627,0.324318 -0.0108,0.363543 -0.12346,0.607542 -0.16186,0.956476 -0.0252,0.228448 -0.0438,0.457036 -0.0656,0.685549 -0.0135,0.141304 -0.0167,0.282766 -0.0172,0.423859 -1.3e-4,0.03096 -0.003,0.106815 -0.032,0.09031 -0.0863,-0.04862 -0.0483,-0.445571 -0.0463,-0.495697 0.0107,-0.265372 0.0413,-0.543309 0.0421,-0.807166 -8.6e-4,-0.04132 -0.0313,-0.08021 -0.0235,-0.121621 0.009,-0.04972 0.0672,-0.09012 0.072,-0.140088 0.007,-0.06927 -0.0457,-0.133428 -0.0392,-0.202694 0.005,-0.05008 0.0627,-0.09034 0.072,-0.140088 0.008,-0.04136 -0.0226,-0.0803 -0.0235,-0.121622 3.7e-4,-0.128796 0.0785,-0.264265 0.0727,-0.392543 -0.003,-0.06901 -0.0476,-0.13345 -0.0392,-0.202698 0.0113,-0.0929 0.0838,-0.178099 0.0962,-0.270925 0.0263,-0.19571 -0.0365,-0.39015 -0.0142,-0.586018 0.0284,-0.249674 0.1334,-0.49471 0.15328,-0.744549 0.01,-0.125496 -0.0245,-0.248754 -0.0228,-0.374077 0.007,-0.494026 0.0514,-0.972472 0.16332,-1.461406 0.006,-0.02527 -0.005,-0.173896 0.009,-0.211918 0.0401,-0.11319 0.50486,-0.431406 0.59798,-0.494081 0.067,-0.04516 0.0233,-0.07946 0.072,-0.140088 0.01,-0.01178 0.0384,0.0025 0.0477,-0.0092 0.01,-0.01178 -0.0124,-0.02712 -0.008,-0.04054 0.0385,-0.10853 0.19014,-0.165287 0.3029,-0.226768 0.12253,-0.06682 0.36726,-0.04169 0.48535,-0.05176 0.23801,-0.02034 0.49365,-0.02856 0.73194,-0.05737 0.17688,-0.02135 0.34788,-0.08903 0.52528,-0.101538 0.0887,-0.0062 0.11185,0.02043 0.19884,0.0036"
           id="path22" />
      </g>
      <path
         style="color:#000000;-inkscape-font-specification:'Umbr, Normal';opacity:0.794924;fill:#a7a3c8;stroke-dashoffset:462.602;-inkscape-stroke:none"
         d="m 101.59961,79.994141 v 8.884765 h 0.74023 v -4.070312 h 2.06641 v -0.742188 h -2.06641 v -3.964844 z m 33.85742,0 v 4.861328 l 0.20117,0.0293 V 80.195312 H 136 v 4.070313 h 2.06445 v 0.341797 H 136 v 0.328125 l 0.19922,0.0293 v -0.15625 h 2.0664 v -0.742188 h -2.0664 v -4.072265 h -0.0996 z m -22.55273,0.04687 -4.41407,0.855468 0.59961,0.08789 3.61524,-0.701172 v 1.232422 l 0.19922,0.0293 z m 33.85937,0 -4.43164,0.859375 v 4.964843 h 0.0996 0.625 v -4.359375 l 2.97461,-0.578125 v 4.886719 h 0.73242 z m -19.62109,0.02539 c -0.53926,0.11307 -1.04703,0.344437 -1.43164,0.541016 l -0.0898,0.04492 0.33594,0.660156 0.0898,-0.04492 c 0.43067,-0.221609 0.87723,-0.402678 1.28515,-0.482422 0.40792,-0.07974 0.77211,-0.05791 1.05664,0.107422 0.20567,0.11807 0.43796,0.356442 0.60547,0.845703 0.15809,0.461752 0.23349,1.196926 0.1875,2.197266 l 0.20313,0.0293 c 0.0499,-1.032036 -0.0302,-1.791726 -0.20118,-2.291016 -0.17954,-0.524397 -0.44388,-0.81074 -0.69531,-0.955078 -0.34187,-0.198654 -0.75887,-0.214227 -1.19531,-0.128906 -0.40529,0.07923 -0.83021,0.259523 -1.24219,0.464843 L 125.89453,80.75 c 0.36607,-0.182878 0.81325,-0.388513 1.28906,-0.488281 0.51038,-0.107015 1.03078,-0.09849 1.47657,0.15625 0.53724,0.310409 0.82679,0.903432 0.9707,1.589843 0.138,0.658212 0.12901,1.387079 0.0918,2.00586 l 0.20117,0.0293 c 0.0389,-0.631482 0.0477,-1.383028 -0.0977,-2.076172 -0.15024,-0.716628 -0.4609,-1.370859 -1.0664,-1.720703 v -0.002 c -0.50227,-0.28701 -1.07794,-0.290804 -1.61719,-0.177735 z m -25.34375,0.128906 h 0.3418 v 4.070313 h 2.06445 v 0.341797 h -2.06445 v 4.072265 h -0.3418 z m 44.76562,0.08789 v 5.332031 h -0.33398 v -4.93164 l -3.375,0.658203 v 4.324219 h -0.32422 V 81.0664 Z m -34.19336,0.400391 -2.29101,0.447265 0.59765,0.08789 1.49415,-0.291016 V 81.4375 l 0.19921,0.0293 z m 4.25196,0.09766 v 1.310547 l 0.20117,0.0293 v -1.138672 h 2.19531 v 0.332031 h -1.87109 v 0.853516 l 0.19922,0.0293 v -0.681641 h 1.87109 V 80.78125 Z m -8.15039,0.203125 v 4.880859 h 0.0996 0.625 v -4.359375 l 1.23046,-0.238281 -0.60156,-0.08789 -0.83008,0.16211 v 4.324219 h -0.32421 v -4.59961 l 0.15625,-0.03125 z m 3.69922,0.533203 v 4.296875 h 0.73242 v -4.191406 l -0.19922,-0.02734 v 4.019531 h -0.33399 v -4.068359 z m 4.45117,0.642578 v 5.212891 h 4.32226 v -0.72461 h -3.59765 V 82.26367 l -0.19922,-0.0293 v 4.613281 h 0.0996 3.49804 v 0.326172 h -3.92187 v -4.984375 z m 12.5625,1.810547 c -0.002,0.044 0.0106,0.05049 0.008,0.0957 -0.0293,0.455935 -0.0904,0.815245 -0.21484,1.083985 -0.12449,0.26874 -0.30605,0.451264 -0.60352,0.574218 -0.43585,0.182267 -1.17092,0.236829 -2.42187,-0.02344 l -0.0957,-0.01953 -0.16211,0.720703 0.0996,0.01953 c 0.81037,0.170603 1.5804,0.25467 2.23828,0.154297 0.65788,-0.100373 1.20781,-0.392327 1.53321,-0.962891 0.27631,-0.47231 0.3357,-1.013164 0.36132,-1.5 7.4e-4,-0.01113 -0.003,-0.02589 -0.002,-0.03711 l -0.20117,-0.02734 c -9.8e-4,0.01555 0.003,0.03539 0.002,0.05078 v 0.002 c -0.0252,0.47815 -0.0834,0.9852 -0.33203,1.410157 l -0.002,0.002 c -0.29253,0.51293 -0.77049,0.770917 -1.38867,0.865234 -0.58922,0.0899 -1.31014,0.0073 -2.06641,-0.144531 l 0.0762,-0.335938 c 1.18268,0.230337 1.96204,0.210548 2.4375,0.01172 0.33739,-0.139454 0.56683,-0.368915 0.70899,-0.675781 0.14215,-0.306866 0.2044,-0.687568 0.23437,-1.154297 0.002,-0.03722 -0.01,-0.04363 -0.008,-0.08008 z m 6.27148,0.904297 v 4.003906 h 0.74219 V 84.980469 L 136,84.953125 v 3.726562 h -0.3418 v -3.777343 z m -9.81836,2.958984 v 0.09961 0.640625 h 4.43164 v -0.740235 z m -17.28515,0.134766 v 0.09961 0.548828 h 4.66992 V 87.96875 Z m 33.85937,0 v 0.09961 0.548828 h 4.66992 V 87.96875 Z m -16.375,0.06445 h 4.0332 V 88.375 h -4.0332 z m -17.28516,0.134766 h 4.26954 v 0.25 h -4.26954 z m 33.85938,0 h 4.26953 v 0.25 h -4.26953 z"
         id="text2" />
    </g>
  </g>
</svg>
